<svg width="256" height="256" viewBox="0 0 256 256" fill="none" xmlns="http://www.w3.org/2000/svg">
  <defs>
    <linearGradient id="bg" x1="128" y1="0" x2="128" y2="256" gradientUnits="userSpaceOnUse">
      <stop stop-color="#120D1F" />
      <stop offset="1" stop-color="#160C28" />
    </linearGradient>
    <clipPath id="icon-mask">
      <rect width="256" height="256" rx="64" fill="white" />
    </clipPath>
  </defs>

  <g clip-path="url(#icon-mask)">
    <rect width="256" height="256" rx="64" fill="url(#bg)" />
    <ellipse cx="78" cy="64" rx="78" ry="78" fill="#8B5CF6" fill-opacity="0.35" />
    <ellipse cx="204" cy="208" rx="88" ry="88" fill="#EC4899" fill-opacity="0.2" />

    <rect x="90" y="90" width="94" height="94" rx="30.08" fill="#F8FAFC" />
    <rect x="104" y="166" width="68" height="48" rx="13.44" fill="#F8FAFC" />
    <rect x="90" y="40" width="20" height="86" rx="4.8" fill="#F8FAFC" />
    <rect x="115" y="30" width="20" height="96" rx="4.8" fill="#F8FAFC" />
    <rect x="140" y="30" width="20" height="96" rx="4.8" fill="#F8FAFC" />
    <rect x="166" y="50" width="18" height="76" rx="4.32" fill="#F8FAFC" />
    <rect
      x="73.58"
      y="90.14"
      width="24"
      height="80.5"
      rx="5.76"
      transform="rotate(-30 85.58 130.39)"
      fill="#F8FAFC"
    />
    <ellipse cx="68.5" cy="101" rx="11.5" ry="12" fill="#F8FAFC" />
    <ellipse cx="100" cy="43" rx="10" ry="10" fill="#F8FAFC" />
    <ellipse cx="125" cy="34" rx="10" ry="10" fill="#F8FAFC" />
    <ellipse cx="150" cy="35" rx="10" ry="10" fill="#F8FAFC" />
    <ellipse cx="175" cy="54" rx="9" ry="9" fill="#F8FAFC" />

    <path d="M104 100Q148 109 170 110" stroke="#F472B6" stroke-width="10" stroke-linecap="round" />
    <path
      d="M102 110Q128 116 140 122Q152 128 172 138"
      stroke="#60A5FA"
      stroke-width="10"
      stroke-linecap="round"
    />
    <path
      d="M101.97 119.56Q121.97 129.56 125.47 146.56Q128.97 163.56 121.97 179.56"
      stroke="#FB923C"
      stroke-width="10"
      stroke-linecap="round"
    />
  </g>
</svg>
